<svg xmlns="http://www.w3.org/2000/svg" width="23" height="26" viewBox="0 0 23 26" fill="none">
<path d="M11.1413 5.55156C11.1766 4.4964 11.4776 2.94201 12.5252 1.92084C13.4977 0.972947 14.6815 0.510966 15.4189 0.299767C15.7035 0.218231 15.9766 0.42548 15.9626 0.711841C15.9132 1.72194 15.6381 3.22856 14.9284 4.03569C14.2593 4.79654 13.183 5.80549 11.6065 5.97525C11.3485 6.00303 11.133 5.80211 11.1413 5.55156Z" fill="#393E46"/>
<path d="M13.8408 24.8644C14.5978 25.1444 15.3633 25.4275 16.056 25.4275C17.5379 25.4275 21.853 22.1264 22.0084 18.6978C22.0164 18.5217 21.9074 18.3644 21.7481 18.2784C20.6505 17.6853 18.8581 16.2087 18.7957 14.0605C18.723 11.557 20.0249 9.56857 21.0102 8.74604C21.232 8.56092 21.3081 8.23451 21.1101 8.02576C20.2137 7.08052 18.4102 5.78032 16.7647 5.81224C15.5676 5.83546 14.4889 6.26602 13.5634 6.63548C12.8533 6.91894 12.2333 7.16643 11.7189 7.16643C11.2317 7.16643 10.6469 6.92053 9.97565 6.63829C9.07168 6.25821 8.01102 5.81224 6.8212 5.81224C4.61728 5.81224 0.262705 7.5768 0.262695 14.3888C0.26269 18 4.12375 25.5233 7.38185 25.4275C8.08538 25.4275 8.83725 25.1463 9.58333 24.8671C10.318 24.5923 11.0471 24.3195 11.7189 24.3195C12.3676 24.3195 13.1002 24.5905 13.8408 24.8644Z" fill="#393E46"/>
</svg>