<svg
  xmlns="http://www.w3.org/2000/svg"
  width="24"
  height="24"
  viewBox="0 0 24 24"
  fill="none"
>
  <g clip-path="url(#clip0_29_253)">
    <path
      d="M12 0C9.62663 0 7.30655 0.703788 5.33316 2.02237C3.35977 3.34094 1.8217 5.21509 0.913451 7.4078C0.00519941 9.60051 -0.232441 12.0133 0.230582 14.3411C0.693605 16.6689 1.83649 18.8071 3.51472 20.4853C5.19295 22.1635 7.33115 23.3064 9.65892 23.7694C11.9867 24.2325 14.3995 23.9948 16.5922 23.0866C18.7849 22.1783 20.6591 20.6402 21.9776 18.6668C23.2962 16.6935 24 14.3734 24 12C24 10.4241 23.6896 8.86371 23.0866 7.4078C22.4835 5.95189 21.5996 4.62902 20.4853 3.51472C19.371 2.40042 18.0481 1.5165 16.5922 0.913446C15.1363 0.310389 13.5759 0 12 0Z"
      fill="url(#paint0_linear_29_253)"
    />
    <path
      d="M13.6262 15.18H16.7282L17.2202 12H13.6202V10.302C13.6202 8.994 14.0462 7.83 15.2702 7.83H17.2442V5.076C16.4291 4.96483 15.6068 4.91469 14.7842 4.926C11.8922 4.926 10.2002 6.45 10.2002 9.93V12H7.2002V15.18H10.2002V23.85C10.7955 23.9459 11.3972 23.9961 12.0002 24C12.5443 23.9965 13.0875 23.9564 13.6262 23.88V15.18Z"
      fill="white"
    />
  </g>
  <defs>
    <linearGradient
      id="paint0_linear_29_253"
      x1="3.59401"
      y1="3.594"
      x2="21.972"
      y2="21.972"
      gradientUnits="userSpaceOnUse"
    >
      <stop stop-color="#2AA4F4" />
      <stop offset="1" stop-color="#007AD9" />
    </linearGradient>
    <clipPath id="clip0_29_253">
      <rect width="24" height="24" fill="white" />
    </clipPath>
  </defs>
</svg>
