<svg xmlns="http://www.w3.org/2000/svg" width="24" height="24" viewBox="0 0 24 24" fill="none">
<g clip-path="url(#clip0_29_248)">
<path d="M23.766 9.64801H22.8V9.60001H12V14.4H18.78C18.2593 15.8517 17.2862 17.0978 16.0041 17.9549C14.7219 18.8119 13.1985 19.2347 11.658 19.1608C10.1175 19.087 8.64151 18.5204 7.44723 17.5447C6.25295 16.5689 5.40355 15.2354 5.02409 13.7406C4.64464 12.2458 4.75519 10.6686 5.33946 9.24134C5.92374 7.81408 6.95086 6.61214 8.26958 5.8125C9.58831 5.01286 11.1289 4.65778 12.6646 4.79956C14.2003 4.94133 15.6499 5.57246 16.8 6.60001L20.196 3.20401C18.1817 1.32053 15.5802 0.188283 12.8291 -0.00225437C10.0781 -0.192792 7.34531 0.570012 5.09063 2.15782C2.83595 3.74563 1.19695 6.06155 0.449367 8.71595C-0.298216 11.3703 -0.108757 14.2012 0.985869 16.7323C2.0805 19.2634 4.01349 21.3403 6.45964 22.6135C8.90579 23.8867 11.7158 24.2786 14.417 23.7231C17.1181 23.1677 19.5455 21.6989 21.2909 19.5638C23.0362 17.4287 23.9929 14.7577 24 12C23.9985 11.2103 23.9201 10.4226 23.766 9.64801Z" fill="#FBC02D"/>
<path d="M1.38574 6.41401L5.32774 9.30601C5.75691 8.23246 6.4383 7.27805 7.31428 6.52349C8.19026 5.76893 9.23507 5.23642 10.3603 4.97099C11.4856 4.70556 12.6583 4.71502 13.7791 4.99857C14.9 5.28212 15.936 5.83142 16.7997 6.60001L20.1957 3.20401C18.8449 1.94527 17.2218 1.01523 15.4528 0.486282C13.6837 -0.0426671 11.8165 -0.156259 9.99641 0.154349C8.17631 0.464956 6.45243 1.19138 4.95895 2.27709C3.46548 3.3628 2.24268 4.7785 1.38574 6.41401Z" fill="#E53935"/>
<path d="M12.0003 24C14.9764 23.9994 17.8453 22.8891 20.0463 20.886L16.3323 17.742C15.4317 18.4191 14.3848 18.8755 13.2757 19.0743C12.1666 19.2731 11.0264 19.2089 9.94664 18.8867C8.86692 18.5645 7.87788 17.9935 7.05908 17.2194C6.24029 16.4453 5.61458 15.4899 5.23231 14.43L1.32031 17.43C2.32164 19.4034 3.84913 21.0614 5.73393 22.2209C7.61873 23.3804 9.78743 23.9961 12.0003 24Z" fill="#4CAF50"/>
<path d="M23.766 9.64798V9.59998H12V14.4H18.78C18.309 15.7297 17.4578 16.8919 16.332 17.742L20.046 20.886C21.3081 19.7786 22.3152 18.4108 22.9978 16.8767C23.6804 15.3427 24.0223 13.6789 24 12C23.9985 11.2102 23.9201 10.4225 23.766 9.64798Z" fill="#1565C0"/>
</g>
<defs>
<clipPath id="clip0_29_248">
<rect width="24" height="24" fill="white"/>
</clipPath>
</defs>
</svg>