<svg xmlns="http://www.w3.org/2000/svg" width="24" height="24" viewBox="0 0 24 24" fill="none">
<g clip-path="url(#clip0_29_239)">
<path d="M24 20.6667C24 21.1044 23.9138 21.5379 23.7463 21.9423C23.5787 22.3467 23.3332 22.7142 23.0237 23.0237C22.7142 23.3332 22.3467 23.5788 21.9423 23.7463C21.5379 23.9138 21.1044 24 20.6667 24H3.33333C2.89559 24 2.46214 23.9138 2.05772 23.7463C1.6533 23.5788 1.28584 23.3332 0.976311 23.0237C0.666782 22.7142 0.42125 22.3467 0.253735 21.9423C0.0862189 21.5379 0 21.1044 0 20.6667V3.33333C0 2.44928 0.351189 1.60143 0.976311 0.976311C1.60143 0.351189 2.44928 0 3.33333 0H20.6667C21.5507 0 22.3986 0.351189 23.0237 0.976311C23.6488 1.60143 24 2.44928 24 3.33333V20.6667Z" fill="#0078D4"/>
<path opacity="0.05" d="M15.9997 20.6667V13.9333C15.9997 12.8067 15.453 12.1333 14.5397 12.1333C14.266 12.131 13.9992 12.2194 13.7809 12.3846C13.5626 12.5498 13.4052 12.7826 13.333 13.0467C13.3112 13.2929 13.3112 13.5405 13.333 13.7867V20.6667H8.66638V8H13.333V8.72C14.0719 8.23404 14.9424 7.98731 15.8264 8.01334C18.853 8 20.6664 10.0533 20.6664 13.5133V20.6667H15.9997ZM3.33304 20.6667V8H5.63971C5.33197 8.00944 5.02558 7.95533 4.73968 7.84106C4.45379 7.72679 4.19451 7.5548 3.97806 7.33585C3.7616 7.11689 3.59261 6.85566 3.48163 6.56847C3.37065 6.28127 3.32007 5.97429 3.33304 5.66667C3.33305 5.20461 3.47024 4.75296 3.72723 4.36896C3.98421 3.98497 4.34942 3.68591 4.77656 3.50971C5.20369 3.3335 5.67353 3.28808 6.12651 3.37919C6.5795 3.47031 6.99523 3.69387 7.32101 4.02153C7.6468 4.34918 7.86797 4.76619 7.95649 5.21969C8.04501 5.67319 7.9969 6.14275 7.81825 6.56888C7.6396 6.995 7.33845 7.35848 6.95299 7.61326C6.56752 7.86804 6.11509 8.00264 5.65304 8H7.99971V20.6667H3.33304Z" fill="black"/>
<path opacity="0.07" d="M16.3334 20.3334V13.9334C16.3334 12.6 15.6668 11.8 14.5401 11.8C14.2045 11.8039 13.8789 11.9145 13.6104 12.1159C13.3419 12.3173 13.1445 12.5989 13.0468 12.92C12.9954 13.2126 12.9797 13.5103 13.0001 13.8067V20.3334H9.00011V8.33335H13.0001V9.42669C13.3684 9.05661 13.8103 8.76804 14.2973 8.57969C14.7842 8.39135 15.3053 8.30742 15.8268 8.33335C18.6468 8.33335 20.3334 10.2734 20.3334 13.5134V20.3334H16.3334ZM3.66678 20.3334V8.33335H7.66678V20.3334H3.66678ZM5.66678 7.66669C5.40112 7.67801 5.136 7.63402 4.88822 7.53752C4.64045 7.44102 4.41542 7.2941 4.22739 7.10607C4.03937 6.91805 3.89245 6.69302 3.79595 6.44525C3.69944 6.19747 3.65546 5.93235 3.66678 5.66669C3.66678 5.27113 3.78408 4.88445 4.00384 4.55555C4.2236 4.22665 4.53596 3.9703 4.90141 3.81893C5.26687 3.66755 5.669 3.62795 6.05696 3.70512C6.44492 3.78229 6.80129 3.97277 7.08099 4.25247C7.3607 4.53218 7.55118 4.88854 7.62835 5.27651C7.70552 5.66447 7.66591 6.0666 7.51454 6.43205C7.36316 6.79751 7.10682 7.10986 6.77792 7.32963C6.44902 7.54939 6.06234 7.66669 5.66678 7.66669Z" fill="black"/>
<path d="M4 8.66668H7.33333V20H4V8.66668ZM5.65333 7.33334C5.32428 7.33071 5.00337 7.23073 4.73104 7.046C4.45872 6.86127 4.24718 6.60006 4.12307 6.2953C3.99897 5.99053 3.96786 5.65585 4.03367 5.33343C4.09947 5.01101 4.25925 4.71529 4.49286 4.48353C4.72647 4.25178 5.02346 4.09436 5.34639 4.03112C5.66932 3.96789 6.00375 4.00166 6.30751 4.12819C6.61128 4.25472 6.8708 4.46834 7.05335 4.74213C7.2359 5.01591 7.33332 5.33761 7.33333 5.66668C7.34411 5.89069 7.30748 6.11445 7.22583 6.32333C7.14419 6.53222 7.01936 6.72151 6.85952 6.87883C6.69968 7.03615 6.50844 7.15796 6.29828 7.23628C6.08813 7.3146 5.86381 7.34768 5.64 7.33334H5.65333ZM20 20H16.6667V13.9333C16.6667 12.4667 15.8467 11.4667 14.54 11.4667C14.1373 11.4722 13.7464 11.6038 13.4224 11.843C13.0983 12.0821 12.8573 12.4168 12.7333 12.8C12.6619 13.198 12.6396 13.6032 12.6667 14.0067V20.0067H9.33333V8.67334H12.6667V10.42C12.9732 9.85884 13.4331 9.39656 13.9927 9.08724C14.5523 8.77792 15.1885 8.63435 15.8267 8.67334C18.2133 8.67334 20 10.1733 20 13.52V20.0067V20Z" fill="white"/>
</g>
<defs>
<clipPath id="clip0_29_239">
<rect width="24" height="24" fill="white"/>
</clipPath>
</defs>
</svg>