<svg xmlns="http://www.w3.org/2000/svg" width="78" height="38" viewBox="0 0 78 38" fill="none">
<g style="mix-blend-mode:multiply" opacity="0.3">
<g style="mix-blend-mode:multiply">
<path d="M52.62 15.738C54.581 15.3225 56.0974 14.4667 57.1236 13.2203C58.1849 11.8985 58.7389 10.2408 58.6857 8.54646C58.6857 6.26561 57.9296 4.39191 56.4381 3.0209C54.9466 1.6499 52.699 0.922852 49.7908 0.922852H40.2852V0.956089C40.2863 1.89233 40.6587 2.78991 41.3207 3.45193C41.9827 4.11396 42.8803 4.48636 43.8165 4.48746H49.3504C50.9831 4.48746 52.217 4.87799 53.0147 5.65489C53.4295 6.08044 53.7515 6.58743 53.9603 7.14378C54.1691 7.70014 54.2602 8.29376 54.2278 8.88713C54.2278 11.2178 53.0812 12.6802 50.9042 13.1123C50.483 13.1888 50.0566 13.2332 49.6287 13.2453H48.6566V17.7737L53.7002 26.1285H58.4696L52.0384 15.8626L52.62 15.738Z" fill="black"/>
</g>
</g>
<path d="M53.9364 14.7819C55.9015 14.3665 57.4179 13.5355 58.44 12.2892C59.5002 10.9623 60.0513 9.30026 59.9938 7.60284C59.9938 5.32614 59.2376 3.44828 57.742 2.07728C56.2464 0.706275 54.0029 0 51.0947 0H41.6016V0.0249263C41.6016 0.961505 41.9736 1.85972 42.6359 2.52198C43.2981 3.18424 44.1964 3.5563 45.1329 3.5563H50.671C52.2996 3.5563 53.5335 3.95099 54.3311 4.72373C54.746 5.14938 55.0684 5.65627 55.2778 6.21253C55.4873 6.76879 55.5795 7.36239 55.5484 7.95598C55.5484 10.2908 54.3976 11.7532 52.2248 12.1812C51.8039 12.2601 51.3774 12.3046 50.9493 12.3141H49.9771V16.8426L54.9917 25.2015H59.7653L53.359 14.9356L53.9364 14.7819Z" fill="#FFD369"/>
<g style="mix-blend-mode:multiply" opacity="0.3">
<g style="mix-blend-mode:multiply">
<path d="M25.9604 0.955078H21.5898V26.1608H22.4208C23.3573 26.1608 24.2556 25.7887 24.9178 25.1265C25.5801 24.4642 25.9521 23.566 25.9521 22.6294L25.9604 0.955078Z" fill="black"/>
</g>
<g style="mix-blend-mode:multiply">
<path d="M27.4727 13.5766L35.761 26.1608H40.331V0.955078H39.5001C38.5635 0.955078 37.6653 1.32713 37.003 1.98939C36.3408 2.65165 35.9687 3.54987 35.9687 4.48645V19.7835L27.4727 6.80469V13.5766Z" fill="black"/>
</g>
</g>
<path d="M24.3872 0H20V25.2098H20.8309C21.7675 25.2098 22.6657 24.8378 23.328 24.1755C23.9902 23.5133 24.3623 22.615 24.3623 21.6785L24.3872 0Z" fill="#FFD369"/>
<path d="M28.3789 12.6215L36.6631 25.2098H41.2331V0H40.4022C39.466 0.00109952 38.5684 0.37351 37.9064 1.03553C37.2443 1.69756 36.8719 2.59513 36.8708 3.53137V18.8534L28.3955 5.87039L28.3789 12.6215Z" fill="#FFD369"/>
<path d="M8.02666 36H7.18666L4.13066 31.256H4.09866C4.10399 31.352 4.10932 31.4587 4.11466 31.576C4.12532 31.6933 4.13332 31.8213 4.13866 31.96C4.14399 32.0933 4.14932 32.232 4.15466 32.376C4.15999 32.52 4.16266 32.664 4.16266 32.808V36H3.49866V30.288H4.33066L7.37866 35.016H7.41066C7.40532 34.952 7.39999 34.864 7.39466 34.752C7.38932 34.6347 7.38399 34.5067 7.37866 34.368C7.37332 34.224 7.36799 34.0773 7.36266 33.928C7.35732 33.7787 7.35466 33.64 7.35466 33.512V30.288H8.02666V36ZM12.5832 31.712V36H11.8792V31.712H12.5832ZM12.2392 30.104C12.3459 30.104 12.4392 30.1413 12.5192 30.216C12.6046 30.2853 12.6472 30.3973 12.6472 30.552C12.6472 30.7013 12.6046 30.8133 12.5192 30.888C12.4392 30.9627 12.3459 31 12.2392 31C12.1219 31 12.0232 30.9627 11.9432 30.888C11.8632 30.8133 11.8232 30.7013 11.8232 30.552C11.8232 30.3973 11.8632 30.2853 11.9432 30.216C12.0232 30.1413 12.1219 30.104 12.2392 30.104ZM18.4042 31.632C18.9162 31.632 19.3028 31.7573 19.5642 32.008C19.8255 32.2533 19.9562 32.6533 19.9562 33.208V36H19.2602V33.256C19.2602 32.9093 19.1828 32.6507 19.0282 32.48C18.8735 32.3093 18.6308 32.224 18.3002 32.224C17.8255 32.224 17.4975 32.3573 17.3162 32.624C17.1348 32.8907 17.0442 33.2747 17.0442 33.776V36H16.3402V31.712H16.9082L17.0122 32.296H17.0522C17.1482 32.1467 17.2655 32.024 17.4042 31.928C17.5482 31.8267 17.7055 31.752 17.8762 31.704C18.0468 31.656 18.2228 31.632 18.4042 31.632ZM23.1799 37.92C23.0466 37.92 22.9292 37.9093 22.8279 37.888C22.7266 37.872 22.6386 37.8507 22.5639 37.824V37.256C22.6439 37.2773 22.7266 37.296 22.8119 37.312C22.8972 37.328 22.9906 37.336 23.0919 37.336C23.2626 37.336 23.4039 37.288 23.5159 37.192C23.6279 37.1013 23.6839 36.9253 23.6839 36.664V31.712H24.3879V36.64C24.3879 36.9067 24.3452 37.136 24.2599 37.328C24.1746 37.52 24.0439 37.6667 23.8679 37.768C23.6919 37.8693 23.4626 37.92 23.1799 37.92ZM23.6279 30.552C23.6279 30.3973 23.6679 30.2853 23.7479 30.216C23.8279 30.1413 23.9266 30.104 24.0439 30.104C24.1506 30.104 24.2439 30.1413 24.3239 30.216C24.4092 30.2853 24.4519 30.3973 24.4519 30.552C24.4519 30.7013 24.4092 30.8133 24.3239 30.888C24.2439 30.9627 24.1506 31 24.0439 31C23.9266 31 23.8279 30.9627 23.7479 30.888C23.6679 30.8133 23.6279 30.7013 23.6279 30.552ZM29.7688 31.64C30.2915 31.64 30.6782 31.7547 30.9288 31.984C31.1795 32.2133 31.3048 32.5787 31.3048 33.08V36H30.7928L30.6568 35.392H30.6248C30.5022 35.5467 30.3742 35.6773 30.2408 35.784C30.1128 35.8853 29.9635 35.96 29.7928 36.008C29.6275 36.056 29.4248 36.08 29.1848 36.08C28.9288 36.08 28.6968 36.0347 28.4888 35.944C28.2862 35.8533 28.1262 35.7147 28.0088 35.528C27.8915 35.336 27.8328 35.096 27.8328 34.808C27.8328 34.3813 28.0008 34.0533 28.3368 33.824C28.6728 33.5893 29.1902 33.4613 29.8888 33.44L30.6168 33.416V33.16C30.6168 32.8027 30.5395 32.5547 30.3848 32.416C30.2302 32.2773 30.0115 32.208 29.7288 32.208C29.5048 32.208 29.2915 32.2427 29.0888 32.312C28.8862 32.376 28.6968 32.4507 28.5208 32.536L28.3048 32.008C28.4915 31.9067 28.7128 31.8213 28.9688 31.752C29.2248 31.6773 29.4915 31.64 29.7688 31.64ZM29.9768 33.928C29.4435 33.9493 29.0728 34.0347 28.8648 34.184C28.6622 34.3333 28.5608 34.544 28.5608 34.816C28.5608 35.056 28.6328 35.232 28.7768 35.344C28.9262 35.456 29.1155 35.512 29.3448 35.512C29.7075 35.512 30.0088 35.4133 30.2488 35.216C30.4888 35.0133 30.6088 34.704 30.6088 34.288V33.904L29.9768 33.928ZM36.6997 30.288C37.1743 30.288 37.5637 30.3493 37.8677 30.472C38.177 30.5893 38.4063 30.768 38.5557 31.008C38.705 31.248 38.7797 31.5493 38.7797 31.912C38.7797 32.216 38.7237 32.4693 38.6117 32.672C38.4997 32.8747 38.3557 33.0373 38.1797 33.16C38.009 33.2773 37.8277 33.3707 37.6357 33.44L39.2037 36H38.3637L36.9797 33.64H35.8437V36H35.1237V30.288H36.6997ZM36.6597 30.912H35.8437V33.032H36.6997C37.009 33.032 37.2623 32.992 37.4597 32.912C37.657 32.8267 37.801 32.704 37.8917 32.544C37.9877 32.384 38.0357 32.184 38.0357 31.944C38.0357 31.6933 37.985 31.4933 37.8837 31.344C37.7877 31.1947 37.6383 31.0853 37.4357 31.016C37.233 30.9467 36.9743 30.912 36.6597 30.912ZM44.0587 31.632C44.4267 31.632 44.7413 31.712 45.0027 31.872C45.2693 32.032 45.472 32.2587 45.6107 32.552C45.7547 32.84 45.8267 33.1787 45.8267 33.568V33.992H42.8907C42.9013 34.4773 43.024 34.848 43.2587 35.104C43.4987 35.3547 43.832 35.48 44.2587 35.48C44.5307 35.48 44.7707 35.456 44.9787 35.408C45.192 35.3547 45.4107 35.28 45.6347 35.184V35.8C45.416 35.896 45.2 35.9653 44.9867 36.008C44.7733 36.056 44.52 36.08 44.2267 36.08C43.8213 36.08 43.4613 35.9973 43.1467 35.832C42.8373 35.6667 42.5947 35.4213 42.4187 35.096C42.248 34.7653 42.1627 34.3627 42.1627 33.888C42.1627 33.4187 42.24 33.016 42.3947 32.68C42.5547 32.344 42.776 32.0853 43.0587 31.904C43.3467 31.7227 43.68 31.632 44.0587 31.632ZM44.0507 32.208C43.7147 32.208 43.448 32.3173 43.2507 32.536C43.0587 32.7493 42.944 33.048 42.9067 33.432H45.0907C45.0907 33.1867 45.0533 32.9733 44.9787 32.792C44.904 32.6107 44.7893 32.4693 44.6347 32.368C44.4853 32.2613 44.2907 32.208 44.0507 32.208ZM51.0367 36.08C50.6581 36.08 50.3194 36.0027 50.0207 35.848C49.7274 35.6933 49.4954 35.4533 49.3247 35.128C49.1594 34.8027 49.0767 34.3867 49.0767 33.88C49.0767 33.352 49.1647 32.9227 49.3407 32.592C49.5167 32.2613 49.7541 32.0187 50.0527 31.864C50.3567 31.7093 50.7007 31.632 51.0847 31.632C51.3034 31.632 51.5141 31.656 51.7167 31.704C51.9194 31.7467 52.0847 31.8 52.2127 31.864L51.9967 32.448C51.8687 32.4 51.7194 32.3547 51.5487 32.312C51.3781 32.2693 51.2181 32.248 51.0687 32.248C50.7807 32.248 50.5434 32.3093 50.3567 32.432C50.1701 32.5547 50.0314 32.736 49.9407 32.976C49.8501 33.216 49.8047 33.5147 49.8047 33.872C49.8047 34.2133 49.8501 34.504 49.9407 34.744C50.0314 34.984 50.1674 35.1653 50.3487 35.288C50.5301 35.4107 50.7567 35.472 51.0287 35.472C51.2634 35.472 51.4687 35.448 51.6447 35.4C51.8261 35.352 51.9914 35.2933 52.1407 35.224V35.848C51.9967 35.9227 51.8367 35.9787 51.6607 36.016C51.4901 36.0587 51.2821 36.08 51.0367 36.08ZM57.5589 31.632C57.6389 31.632 57.7242 31.6373 57.8149 31.648C57.9109 31.6533 57.9936 31.664 58.0629 31.68L57.9749 32.328C57.9056 32.312 57.8282 32.2987 57.7429 32.288C57.6629 32.2773 57.5856 32.272 57.5109 32.272C57.3456 32.272 57.1882 32.3067 57.0389 32.376C56.8896 32.4453 56.7562 32.544 56.6389 32.672C56.5216 32.7947 56.4282 32.944 56.3589 33.12C56.2949 33.296 56.2629 33.4933 56.2629 33.712V36H55.5589V31.712H56.1349L56.2149 32.496H56.2469C56.3376 32.336 56.4469 32.192 56.5749 32.064C56.7029 31.9307 56.8496 31.8267 57.0149 31.752C57.1802 31.672 57.3616 31.632 57.5589 31.632ZM64.846 31.712V36H64.27L64.166 35.432H64.134C64.0434 35.5813 63.926 35.704 63.782 35.8C63.638 35.896 63.4807 35.9653 63.31 36.008C63.1394 36.056 62.9607 36.08 62.774 36.08C62.4327 36.08 62.1447 36.0267 61.91 35.92C61.6807 35.808 61.5074 35.6373 61.39 35.408C61.2727 35.1787 61.214 34.8827 61.214 34.52V31.712H61.926V34.472C61.926 34.8133 62.0034 35.0693 62.158 35.24C62.3127 35.4107 62.5527 35.496 62.878 35.496C63.198 35.496 63.4487 35.4373 63.63 35.32C63.8167 35.1973 63.9474 35.0213 64.022 34.792C64.102 34.5573 64.142 34.2747 64.142 33.944V31.712H64.846ZM69.3098 31.712V36H68.6058V31.712H69.3098ZM68.9658 30.104C69.0724 30.104 69.1658 30.1413 69.2458 30.216C69.3311 30.2853 69.3738 30.3973 69.3738 30.552C69.3738 30.7013 69.3311 30.8133 69.2458 30.888C69.1658 30.9627 69.0724 31 68.9658 31C68.8484 31 68.7498 30.9627 68.6698 30.888C68.5898 30.8133 68.5498 30.7013 68.5498 30.552C68.5498 30.3973 68.5898 30.2853 68.6698 30.216C68.7498 30.1413 68.8484 30.104 68.9658 30.104ZM74.4987 35.504C74.6054 35.504 74.7147 35.496 74.8267 35.48C74.9387 35.4587 75.0294 35.4373 75.0987 35.416V35.952C75.0241 35.9893 74.9174 36.0187 74.7787 36.04C74.6401 36.0667 74.5067 36.08 74.3787 36.08C74.1547 36.08 73.9467 36.0427 73.7547 35.968C73.5681 35.888 73.4161 35.752 73.2987 35.56C73.1814 35.368 73.1227 35.0987 73.1227 34.752V32.256H72.5147V31.92L73.1307 31.64L73.4107 30.728H73.8267V31.712H75.0667V32.256H73.8267V34.736C73.8267 34.9973 73.8881 35.192 74.0107 35.32C74.1387 35.4427 74.3014 35.504 74.4987 35.504Z" fill="#FFD369"/>
</svg>
