<svg xmlns="http://www.w3.org/2000/svg" width="69" height="46" viewBox="0 0 69 46" fill="none">
<g style="mix-blend-mode:multiply" opacity="0.3">
<g style="mix-blend-mode:multiply">
<path d="M56.2671 27.6654C59.6499 26.9487 62.2658 25.4723 64.0361 23.3222C65.867 21.0419 66.8227 18.1823 66.7309 15.2593C66.7309 11.3247 65.4265 8.09235 62.8535 5.72724C60.2806 3.36214 56.4032 2.10791 51.3864 2.10791H34.9883V2.16525C34.9902 3.78035 35.6326 5.32876 36.7746 6.47081C37.9167 7.61286 39.4651 8.25529 41.0802 8.25719H50.6267C53.4433 8.25719 55.5718 8.93088 56.9479 10.2711C57.6634 11.0052 58.2189 11.8798 58.5791 12.8396C58.9393 13.7993 59.0965 14.8234 59.0407 15.847C59.0407 19.8677 57.0626 22.3905 53.3071 23.1359C52.5805 23.2678 51.845 23.3445 51.1068 23.3652H49.4297V31.1772L58.1305 45.59H66.3582L55.2637 27.8804L56.2671 27.6654Z" fill="black"/>
</g>
</g>
<path d="M58.5405 26.0153C61.9305 25.2986 64.5464 23.8652 66.3095 21.7151C68.1385 19.4262 69.0892 16.5589 68.99 13.6307C68.99 9.70322 67.6856 6.46374 65.1055 4.09863C62.5253 1.73352 58.6552 0.515137 53.6383 0.515137H37.2617V0.558137C37.2617 2.17382 37.9035 3.72333 39.046 4.86579C40.1884 6.00825 41.738 6.65008 43.3537 6.65008H52.9073C55.7167 6.65008 57.8453 7.33095 59.2214 8.66401C59.9371 9.39829 60.4932 10.2727 60.8546 11.2323C61.216 12.1919 61.3749 13.2159 61.3213 14.2399C61.3213 18.2678 59.3361 20.7905 55.5877 21.5287C54.8618 21.665 54.1259 21.7417 53.3874 21.7581H51.7104V29.5701L60.3609 43.9901H68.5958L57.5443 26.2805L58.5405 26.0153Z" fill="#FFD369"/>
<g style="mix-blend-mode:multiply" opacity="0.3">
<g style="mix-blend-mode:multiply">
<path d="M10.2858 2.16455H2.74609V45.6467H4.17949C5.79517 45.6467 7.34468 45.0048 8.48714 43.8624C9.6296 42.7199 10.2714 41.1704 10.2714 39.5547L10.2858 2.16455Z" fill="black"/>
</g>
<g style="mix-blend-mode:multiply">
<path d="M12.8984 23.9379L27.1966 45.6467H35.0803V2.16455H33.6469C32.0312 2.16455 30.4817 2.80638 29.3392 3.94884C28.1968 5.0913 27.5549 6.64081 27.5549 8.25649V34.6453L12.8984 12.2557V23.9379Z" fill="black"/>
</g>
</g>
<path d="M7.56834 0.515137H0V44.0044H1.4334C3.04908 44.0044 4.59859 43.3626 5.74105 42.2201C6.88351 41.0777 7.52534 39.5282 7.52534 37.9125L7.56834 0.515137Z" fill="#FFD369"/>
<path d="M14.4531 22.2885L28.7441 44.0044H36.6278V0.515137H35.1944C33.5793 0.517033 32.0309 1.15948 30.8888 2.30153C29.7468 3.44357 29.1043 4.99198 29.1025 6.60708V33.0389L14.4818 10.6421L14.4531 22.2885Z" fill="#FFD369"/>
</svg>